<?xml version='1.0' encoding='iso-8859-1'?>
<!DOCTYPE svg PUBLIC '-//W3C//DTD SVG 1.1//EN' 'http://www.w3.org/Graphics/SVG/1.1/DTD/svg11.dtd'>
<svg version="1.1" xmlns="http://www.w3.org/2000/svg" viewBox="0 0 448.427 448.427" xmlns:xlink="http://www.w3.org/1999/xlink" enable-background="new 0 0 448.427 448.427" fill="#38c956">
  <g>
    <path d="m100.929,347.082c-18.18,0-32.97,14.79-32.97,32.969s14.79,32.969 32.97,32.969c18.179,0 32.969-14.79 32.969-32.969s-14.79-32.969-32.969-32.969zm0,45.938c-7.151,0-12.97-5.818-12.97-12.969s5.818-12.969 12.97-12.969 12.969,5.818 12.969,12.969-5.817,12.969-12.969,12.969z"/>
    <path d="m326.509,413.02c18.179,0 32.969-14.79 32.969-32.969s-14.79-32.969-32.969-32.969-32.969,14.79-32.969,32.969 14.791,32.969 32.969,32.969zm0-45.938c7.151,0 12.969,5.818 12.969,12.969s-5.817,12.969-12.969,12.969-12.969-5.818-12.969-12.969 5.818-12.969 12.969-12.969z"/>
    <path d="m405.874,97.177c-27.931,0-50.654,22.724-50.654,50.655v3.668h-131.5v-141.5c0-5.523-4.478-10-10-10-89.052,0-161.5,72.449-161.5,161.5 0,58.019 30.758,108.982 76.82,137.461l-14.151,14.151c-4.508-0.939-9.176-1.437-13.959-1.437-37.703,0-68.376,30.673-68.376,68.376s30.673,68.376 68.376,68.376 68.376-30.673 68.376-68.376c0-25.176-13.687-47.202-34.001-59.07l12.192-12.191c20.219,9.126 42.638,14.21 66.223,14.21s46.005-5.084 66.223-14.21l12.192,12.191c-20.314,11.867-34.001,33.894-34.001,59.07 0,37.703 30.673,68.376 68.376,68.376s68.376-30.673 68.376-68.376-30.673-68.376-68.376-68.376c-4.783,0-9.451,0.498-13.959,1.437l-14.151-14.151c46.061-28.479 76.82-79.442 76.82-137.461v-13.668c0-16.903 13.751-30.655 30.654-30.655 5.522,0 10-4.477 10-10s-4.478-10-10-10zm-256.569,282.874c0,26.675-21.701,48.376-48.376,48.376s-48.376-21.701-48.376-48.376 21.701-48.376 48.376-48.376 48.376,21.701 48.376,48.376zm225.58,0c0,26.675-21.701,48.376-48.376,48.376s-48.376-21.701-48.376-48.376 21.701-48.376 48.376-48.376 48.376,21.701 48.376,48.376zm-171.166-359.701v131.15h-131.146c4.916-70.071 61.075-126.234 131.146-131.15zm10,282.65c-74.661,0-135.994-58.126-141.142-131.5h282.293c-5.148,73.375-66.49,131.5-141.151,131.5z"/>
  </g>
</svg>
